{
  "accessors": [
    {
      "bufferView": 2,
      "componentType": 5126,
      "count": 24,
      "max": [
        1.0,
        1.0,
        1.0
      ],
      "min": [
        -1.0,
        -1.0,
        -1.0
      ],
      "type": "VEC3"
    },
    {
      "bufferView": 2,
      "byteOffset": 288,
      "componentType": 5126,
      "count": 24,
      "max": [
        1.0,
        1.0,
        1.0
      ],
      "min": [
        -1.0,
        -1.0,
        -1.0
      ],
      "type": "VEC3"
    },
    {
      "bufferView": 1,
      "componentType": 5126,
      "count": 24,
      "max": [
        0.7499567270278931,
        0.9999133944511414
      ],
      "min": [
        8.658754813950509e-05,
        8.660554885864258e-05
      ],
      "type": "VEC2"
    },
    {
      "bufferView": 0,
      "componentType": 5125,
      "count": 36,
      "type": "SCALAR"
    },
    {
      "bufferView": 2,
      "byteOffset": 576,
      "componentType": 5126,
      "count": 65532,
      "max": [
        5.373693943023682,
        3.1374101638793945,
        4.442193031311035
      ],
      "min": [
        -3.3017120361328125,
        -4.504422187805176,
        -3.4324276447296143
      ],
      "type": "VEC3"
    },
    {
      "bufferView": 2,
      "byteOffset": 786960,
      "componentType": 5126,
      "count": 65532,
      "max": [
        1.0,
        1.0,
        0.9999159574508667
      ],
      "min": [
        -1.0,
        -0.9999862313270569,
        -0.999976396560669
      ],
      "type": "VEC3"
    },
    {
      "bufferView": 1,
      "byteOffset": 192,
      "componentType": 5126,
      "count": 65532,
      "max": [
        0.9996960163116455,
        0.9996070265769958
      ],
      "min": [
        0.00026199998683296144,
        0.0002639889717102051
      ],
      "type": "VEC2"
    },
    {
      "bufferView": 0,
      "byteOffset": 144,
      "componentType": 5125,
      "count": 252210,
      "type": "SCALAR"
    },
    {
      "bufferView": 2,
      "byteOffset": 1573344,
      "componentType": 5126,
      "count": 65534,
      "max": [
        5.373693943023682,
        3.149874687194824,
        4.438420295715332
      ],
      "min": [
        -3.2222819328308105,
        -4.64063835144043,
        -3.4324276447296143
      ],
      "type": "VEC3"
    },
    {
      "bufferView": 2,
      "byteOffset": 2359752,
      "componentType": 5126,
      "count": 65534,
      "max": [
        0.9999196529388428,
        0.9999815225601196,
        0.9997771978378296
      ],
      "min": [
        -0.9999582171440125,
        -0.9999706745147705,
        -0.9999865889549255
      ],
      "type": "VEC3"
    },
    {
      "bufferView": 1,
      "byteOffset": 524448,
      "componentType": 5126,
      "count": 65534,
      "max": [
        0.9997429847717285,
        0.9995250105857849
      ],
      "min": [
        0.0002699999895412475,
        0.00025397539138793945
      ],
      "type": "VEC2"
    },
    {
      "bufferView": 0,
      "byteOffset": 1008984,
      "componentType": 5125,
      "count": 205344,
      "type": "SCALAR"
    },
    {
      "bufferView": 2,
      "byteOffset": 3146160,
      "componentType": 5126,
      "count": 65532,
      "max": [
        5.368249893188477,
        3.1513166427612305,
        4.445704460144043
      ],
      "min": [
        -3.3017120361328125,
        -4.685331344604492,
        -3.426090717315674
      ],
      "type": "VEC3"
    },
    {
      "bufferView": 2,
      "byteOffset": 3932544,
      "componentType": 5126,
      "count": 65532,
      "max": [
        0.9998928308486938,
        0.9999815225601196,
        0.9998534321784973
      ],
      "min": [
        -0.9999582171440125,
        -0.9999154806137085,
        -0.9999865889549255
      ],
      "type": "VEC3"
    },
    {
      "bufferView": 1,
      "byteOffset": 1048720,
      "componentType": 5126,
      "count": 65532,
      "max": [
        0.9997320175170898,
        0.9996150135993958
      ],
      "min": [
        0.0002479999966453761,
        0.0002509951591491699
      ],
      "type": "VEC2"
    },
    {
      "bufferView": 0,
      "byteOffset": 1830360,
      "componentType": 5125,
      "count": 153198,
      "type": "SCALAR"
    },
    {
      "bufferView": 2,
      "byteOffset": 4718928,
      "componentType": 5126,
      "count": 55558,
      "max": [
        5.3693132400512695,
        3.1463499069213867,
        4.441134452819824
      ],
      "min": [
        -3.3017120361328125,
        -4.685331344604492,
        -3.4324276447296143
      ],
      "type": "VEC3"
    },
    {
      "bufferView": 2,
      "byteOffset": 5385624,
      "componentType": 5126,
      "count": 55558,
      "max": [
        1.0,
        0.9999349117279053,
        0.9999159574508667
      ],
      "min": [
        -1.0,
        -1.0,
        -0.9999045729637146
      ],
      "type": "VEC3"
    },
    {
      "bufferView": 1,
      "byteOffset": 1572976,
      "componentType": 5126,
      "count": 55558,
      "max": [
        0.9997519850730896,
        0.9996060132980347
      ],
      "min": [
        0.00025499999173916876,
        0.00024902820587158203
      ],
      "type": "VEC2"
    },
    {
      "bufferView": 0,
      "byteOffset": 2443152,
      "componentType": 5125,
      "count": 88941,
      "type": "SCALAR"
    }
  ],
  "asset": {
    "extras": {
      "author": "ffish.asia / floraZia.com (https://sketchfab.com/ffishAsia-and-floraZia)",
      "license": "CC-BY-4.0 (http://creativecommons.org/licenses/by/4.0/)",
      "source": "https://sketchfab.com/3d-models/red-spider-lily-lycoris-radiata-3595e743a5b64d8699fac6dcf4af3f4f",
      "title": "ヒガンバナ🌷 Red Spider Lily, Lycoris radiata"
    },
    "generator": "Sketchfab-14.54.0",
    "version": "2.0"
  },
  "bufferViews": [
    {
      "buffer": 0,
      "byteLength": 2798916,
      "name": "floatBufferViews",
      "target": 34963
    },
    {
      "buffer": 0,
      "byteLength": 2017440,
      "byteOffset": 2798916,
      "byteStride": 8,
      "name": "floatBufferViews",
      "target": 34962
    },
    {
      "buffer": 0,
      "byteLength": 6052320,
      "byteOffset": 4816356,
      "byteStride": 12,
      "name": "floatBufferViews",
      "target": 34962
    }
  ],
  "buffers": [
    {
      "byteLength": 10868676,
      "uri": "scene.bin"
    }
  ],
  "extensionsUsed": [
    "KHR_materials_unlit"
  ],
  "images": [
    {
      "uri": "textures/Material.001_baseColor.jpeg"
    },
    {
      "uri": "textures/PL-QS1310-1all-3_baseColor.jpeg"
    }
  ],
  "materials": [
    {
      "doubleSided": true,
      "extensions": {
        "KHR_materials_unlit": {}
      },
      "name": "Material.001",
      "pbrMetallicRoughness": {
        "baseColorTexture": {
          "index": 0
        },
        "metallicFactor": 0.0
      }
    },
    {
      "doubleSided": true,
      "extensions": {
        "KHR_materials_unlit": {}
      },
      "name": "PL-QS1310-1all-3",
      "pbrMetallicRoughness": {
        "baseColorTexture": {
          "index": 1
        },
        "metallicFactor": 0.0
      }
    }
  ],
  "meshes": [
    {
      "name": "Object_0",
      "primitives": [
        {
          "attributes": {
            "NORMAL": 1,
            "POSITION": 0,
            "TEXCOORD_0": 2
          },
          "indices": 3,
          "material": 0,
          "mode": 4
        }
      ]
    },
    {
      "name": "Object_1",
      "primitives": [
        {
          "attributes": {
            "NORMAL": 5,
            "POSITION": 4,
            "TEXCOORD_0": 6
          },
          "indices": 7,
          "material": 1,
          "mode": 4
        }
      ]
    },
    {
      "name": "Object_2",
      "primitives": [
        {
          "attributes": {
            "NORMAL": 9,
            "POSITION": 8,
            "TEXCOORD_0": 10
          },
          "indices": 11,
          "material": 1,
          "mode": 4
        }
      ]
    },
    {
      "name": "Object_3",
      "primitives": [
        {
          "attributes": {
            "NORMAL": 13,
            "POSITION": 12,
            "TEXCOORD_0": 14
          },
          "indices": 15,
          "material": 1,
          "mode": 4
        }
      ]
    },
    {
      "name": "Object_4",
      "primitives": [
        {
          "attributes": {
            "NORMAL": 17,
            "POSITION": 16,
            "TEXCOORD_0": 18
          },
          "indices": 19,
          "material": 1,
          "mode": 4
        }
      ]
    }
  ],
  "nodes": [
    {
      "children": [
        1
      ],
      "matrix": [
        1.0,
        0.0,
        0.0,
        0.0,
        0.0,
        2.220446049250313e-16,
        -1.0,
        0.0,
        0.0,
        1.0,
        2.220446049250313e-16,
        0.0,
        0.0,
        0.0,
        0.0,
        1.0
      ],
      "name": "Sketchfab_model"
    },
    {
      "children": [
        2
      ],
      "name": "root"
    },
    {
      "children": [
        3,
        5
      ],
      "matrix": [
        1.0,
        0.0,
        0.0,
        0.0,
        0.0,
        2.220446049250313e-16,
        1.0,
        0.0,
        0.0,
        -1.0,
        2.220446049250313e-16,
        0.0,
        0.0,
        0.0,
        0.0,
        1.0
      ],
      "name": "GLTF_SceneRootNode"
    },
    {
      "children": [
        4
      ],
      "matrix": [
        -0.0005508633414607293,
        -0.2973936321139053,
        0.0010607393543153045,
        0.0,
        0.00137297104214889,
        -0.0010632731032756111,
        -0.2973909937562177,
        0.0,
        0.29739241414715023,
        -0.0005459570062513356,
        0.001374929580127982,
        0.0,
        3.8758606910705566,
        -2.496852159500122,
        -0.00019188116129953414,
        1.0
      ],
      "name": "Cube_2"
    },
    {
      "mesh": 0,
      "name": "Object_4"
    },
    {
      "children": [
        6,
        7,
        8,
        9
      ],
      "matrix": [
        -0.21219008172624632,
        -0.8559904484134037,
        -0.47144005074031325,
        0.0,
        -0.48622626520293843,
        -0.3259928753389807,
        0.8107482126129084,
        0.0,
        -0.8476788237556786,
        0.40125926463228745,
        -0.3470325839210857,
        0.0,
        0.0,
        0.1958463042974472,
        0.2546002268791199,
        1.0
      ],
      "name": "PL-QS1310-1all-3_5"
    },
    {
      "mesh": 1,
      "name": "Object_6"
    },
    {
      "mesh": 2,
      "name": "Object_7"
    },
    {
      "mesh": 3,
      "name": "Object_8"
    },
    {
      "mesh": 4,
      "name": "Object_9"
    }
  ],
  "samplers": [
    {
      "magFilter": 9729,
      "minFilter": 9987,
      "wrapS": 10497,
      "wrapT": 10497
    }
  ],
  "scene": 0,
  "scenes": [
    {
      "name": "Sketchfab_Scene",
      "nodes": [
        0
      ]
    }
  ],
  "textures": [
    {
      "sampler": 0,
      "source": 0
    },
    {
      "sampler": 0,
      "source": 1
    }
  ]
}
